<?xml version="1.0" standalone="no"?>
<!DOCTYPE svg PUBLIC "-//W3C//DTD SVG 20010904//EN"
 "http://www.w3.org/TR/2001/REC-SVG-20010904/DTD/svg10.dtd">
<svg version="1.0" xmlns="http://www.w3.org/2000/svg"
 width="430.000000pt" height="173.000000pt" viewBox="0 0 430.000000 173.000000"
 preserveAspectRatio="xMidYMid meet">
<metadata>
Created by potrace 1.13, written by Peter Selinger 2001-2015
</metadata>
<g transform="translate(0.000000,173.000000) scale(0.100000,-0.100000)"
fill="#000000" stroke="none">
<path d="M1090 950 l0 -210 45 0 45 0 0 55 0 55 318 -2 317 -3 3 -52 3 -53 44
0 45 0 -3 168 -2 167 -42 3 -43 3 0 -70 0 -71 -320 0 -320 0 0 110 0 110 -45
0 -45 0 0 -210z"/>
<path d="M2067 1075 c-72 -25 -117 -88 -117 -164 0 -81 48 -145 126 -171 106
-35 224 50 224 162 0 83 -32 136 -105 169 -47 22 -76 23 -128 4z m127 -106
c34 -40 34 -80 -2 -120 -39 -44 -95 -44 -134 0 -38 42 -37 83 1 122 42 42 99
41 135 -2z"/>
<path d="M2320 1035 l0 -45 50 0 50 0 0 -125 0 -125 45 0 45 0 0 125 0 125 50
0 50 0 0 45 0 45 -145 0 -145 0 0 -45z"/>
<path d="M2660 910 l0 -170 130 0 130 0 0 45 0 45 -85 0 c-78 0 -85 2 -85 20
0 18 7 20 70 20 l70 0 0 40 0 40 -70 0 c-63 0 -70 2 -70 20 0 18 7 20 85 20
l85 0 0 45 0 45 -130 0 -130 0 0 -170z"/>
<path d="M2970 910 l0 -170 120 0 120 0 0 45 0 45 -75 0 -75 0 0 125 0 125
-45 0 -45 0 0 -170z"/>
</g>
</svg>
